<?xml version="1.0" encoding="UTF-8" standalone="no"?>
<!-- Generator: Adobe Illustrator 19.0.0, SVG Export Plug-In . SVG Version: 6.00 Build 0)  -->

<svg
   xmlns:dc="http://purl.org/dc/elements/1.1/"
   xmlns:cc="http://creativecommons.org/ns#"
   xmlns:rdf="http://www.w3.org/1999/02/22-rdf-syntax-ns#"
   xmlns:svg="http://www.w3.org/2000/svg"
   xmlns="http://www.w3.org/2000/svg"
   xmlns:sodipodi="http://sodipodi.sourceforge.net/DTD/sodipodi-0.dtd"
   xmlns:inkscape="http://www.inkscape.org/namespaces/inkscape"
   version="1.1"
   id="Layer_1"
   x="0px"
   y="0px"
   viewBox="0 0 512.001 512.001"
   style="enable-background:new 0 0 512.001 512.001;"
   xml:space="preserve"
   inkscape:version="0.91 r13725"
   sodipodi:docname="orange_shazam.svg"><metadata
     id="metadata77"><rdf:RDF><cc:Work
         rdf:about=""><dc:format>image/svg+xml</dc:format><dc:type
           rdf:resource="http://purl.org/dc/dcmitype/StillImage" /><dc:title /></cc:Work></rdf:RDF></metadata><defs
     id="defs75" /><sodipodi:namedview
     pagecolor="#ffffff"
     bordercolor="#666666"
     borderopacity="1"
     objecttolerance="10"
     gridtolerance="10"
     guidetolerance="10"
     inkscape:pageopacity="0"
     inkscape:pageshadow="2"
     inkscape:window-width="1920"
     inkscape:window-height="1027"
     id="namedview73"
     showgrid="false"
     inkscape:zoom="0.4932086"
     inkscape:cx="-409.2819"
     inkscape:cy="243.91483"
     inkscape:window-x="0"
     inkscape:window-y="0"
     inkscape:window-maximized="1"
     inkscape:current-layer="Layer_1" /><circle
     style="fill:#ff8e34;fill-opacity:0;stroke:#ffffff;stroke-opacity:1;stroke-width:2;stroke-miterlimit:4;stroke-dasharray:none;opacity:1"
     cx="252.20291"
     cy="259.97598"
     r="213.15199"
     id="circle3" /><circle
     style="stroke:#ffffff;stroke-width:1;stroke-miterlimit:4;stroke-dasharray:none;stroke-opacity:1;fill:none;opacity:1"
     id="circle7"
     r="8.3260002"
     cy="207.46797"
     cx="112.14192" /><circle
     style="stroke:#ffffff;stroke-width:1;stroke-miterlimit:4;stroke-dasharray:none;stroke-opacity:1;fill:none;opacity:1"
     id="circle9"
     r="8.3260002"
     cy="250.86197"
     cx="146.54292" /><circle
     style="stroke:#ffffff;stroke-width:1;stroke-miterlimit:4;stroke-dasharray:none;stroke-opacity:1;fill:none;opacity:1"
     id="circle11"
     r="8.3260002"
     cy="301.23895"
     cx="112.14192" /><circle
     style="stroke:#ffffff;stroke-width:1;stroke-miterlimit:4;stroke-dasharray:none;stroke-opacity:1;fill:none;opacity:1"
     id="circle13"
     r="8.3260002"
     cy="207.46797"
     cx="196.27592" /><circle
     style="stroke:#ffffff;stroke-width:1;stroke-miterlimit:4;stroke-dasharray:none;stroke-opacity:1;fill:none;opacity:1"
     id="circle15"
     r="8.3260002"
     cy="165.40598"
     cx="163.19492" /><circle
     style="opacity:1;fill:none;enable-background:new;stroke:#ffffff;stroke-opacity:1"
     cx="268.47794"
     cy="104.51598"
     r="22.572001"
     id="circle17" /><path
     style="opacity:0.19;enable-background:new"
     d="M 110.64844 100.63672 C 66.72844 139.67972 39.050781 196.59252 39.050781 259.97852 C 39.050781 377.69752 134.48122 473.12695 252.19922 473.12695 C 369.91722 473.12695 465.34766 377.69652 465.34766 259.97852 C 465.34866 233.02652 460.33212 207.24877 451.20312 183.50977 C 451.90213 174.62077 436.5307 170.1528 435.7207 161.5918 C 429.3807 159.1948 408.83391 112.75589 403.62891 117.96289 C 403.62891 117.96289 407.12295 129.73383 409.88281 148.55859 C 411.20146 149.44857 412.33838 150.65171 413.13477 152.16797 C 424.40477 173.61697 449.93533 230.93036 434.23633 285.10938 C 423.28809 322.89297 394.58594 351.23046 371.09375 369.0332 C 372.09662 369.95944 373.0394 370.84506 373.87695 371.65039 C 377.26595 374.90939 377.26595 380.29864 373.87695 383.55664 C 359.37595 397.49964 319.56742 431.10352 272.73242 431.10352 C 244.84767 431.10352 219.45656 419.1916 200.41211 406.60938 C 195.2089 405.08476 190.03636 403.45044 184.82812 401.84961 C 139.43915 387.8986 56.84375 321.8545 56.84375 242.1875 C 56.84375 187.8555 77.181439 138.28172 110.64844 100.63672 z "
     id="path29" /><path
     style="fill:none;stroke:#ffffff;stroke-opacity:1;stroke-linejoin:round;opacity:1"
     d="M 403.625 146.40625 C 401.98319 146.42848 400.32023 146.86008 398.78711 147.74414 C 377.79711 159.84514 325.57986 194.62764 309.88086 248.80664 C 301.64092 277.24361 304.76605 306.53592 311.21875 331.06055 C 299.11521 326.59467 285.9445 323.66992 272.15625 323.66992 C 225.31925 323.66992 185.51367 357.2728 171.01367 371.2168 C 167.62467 374.4748 167.62467 379.86405 171.01367 383.12305 C 185.51467 397.06605 225.32125 430.66992 272.15625 430.66992 C 318.99125 430.66992 358.79978 397.06605 373.30078 383.12305 C 376.68978 379.86505 376.68978 374.4758 373.30078 371.2168 C 372.46323 370.41147 371.52045 369.52585 370.51758 368.59961 C 394.00977 350.79687 422.71192 322.45937 433.66016 284.67578 C 449.35916 230.49678 423.82859 173.18338 412.55859 151.73438 C 410.74841 148.28794 407.23698 146.35734 403.625 146.40625 z "
     id="path19" /><path
     style="opacity:1;enable-background:new;stroke:#ffffff;stroke-opacity:1;stroke-linejoin:round;fill:none"
     d="m 319.3083,389.83531 -68.26976,0 c -6.82951,0 -12.36409,-3.728 -12.36409,-8.326 0,-4.598 5.53458,-8.326 12.36409,-8.326 l 68.26976,0 c 6.82951,0 12.36409,3.728 12.36409,8.326 0,4.598 -5.53458,8.326 -12.36409,8.326 z"
     id="path23"
     inkscape:connector-curvature="0" /><path
     style="opacity:1;enable-background:new;stroke:#ffffff;stroke-opacity:1;stroke-linejoin:round;fill:none"
     d="m 344.9244,363.02515 c -0.76046,-0.0999 -1.51018,-0.39688 -2.22292,-0.90595 -4.07174,-2.90889 -5.48681,-11.65924 -3.15987,-19.54327 l 28.01929,-94.94634 c 2.32621,-7.886 7.51478,-11.91854 11.58751,-9.00955 4.07174,2.90888 5.48681,11.65923 3.15985,19.54326 l -28.01927,94.94637 c -1.91945,6.50213 -5.78437,10.38591 -9.36459,9.91548 z"
     id="path27"
     inkscape:connector-curvature="0" /><g
     id="g43"
     style="stroke:#ffffff;stroke-opacity:1;opacity:1" /><g
     id="g45"
     style="stroke:#ffffff;stroke-opacity:1;opacity:1" /><g
     id="g47"
     style="stroke:#ffffff;stroke-opacity:1;opacity:1" /><g
     id="g49"
     style="stroke:#ffffff;stroke-opacity:1;opacity:1" /><g
     id="g51"
     style="stroke:#ffffff;stroke-opacity:1;opacity:1" /><g
     id="g53"
     style="stroke:#ffffff;stroke-opacity:1;opacity:1" /><g
     id="g55"
     style="stroke:#ffffff;stroke-opacity:1;opacity:1" /><g
     id="g57"
     style="stroke:#ffffff;stroke-opacity:1;opacity:1" /><g
     id="g59"
     style="stroke:#ffffff;stroke-opacity:1;opacity:1" /><g
     id="g61"
     style="stroke:#ffffff;stroke-opacity:1;opacity:1" /><g
     id="g63"
     style="stroke:#ffffff;stroke-opacity:1;opacity:1" /><g
     id="g65"
     style="stroke:#ffffff;stroke-opacity:1;opacity:1" /><g
     id="g67"
     style="stroke:#ffffff;stroke-opacity:1;opacity:1" /><g
     id="g69"
     style="stroke:#ffffff;stroke-opacity:1;opacity:1" /><g
     id="g71"
     style="stroke:#ffffff;stroke-opacity:1;opacity:1" /></svg>